HIERARCHY
ROOT Hips
{
	OFFSET -0.001795 -0.223333 0.028219
	CHANNELS 6 Xposition Yposition Zposition Zrotation Yrotation Xrotation 
	JOINT LeftUpLeg
	{
		OFFSET 0.069520 -0.091406 -0.006815
		CHANNELS 3 Zrotation Yrotation Xrotation
		JOINT LeftLeg
		{
			OFFSET 0.034277 -0.375199 -0.004496
			CHANNELS 3 Zrotation Yrotation Xrotation
			JOINT LeftFoot
			{
				OFFSET -0.013596 -0.397961 -0.043693
				CHANNELS 3 Zrotation Yrotation Xrotation
				JOINT LeftToe
				{
					OFFSET 0.026358 -0.055791 0.119288
					CHANNELS 3 Zrotation Yrotation Xrotation
					End Site
					{
						OFFSET 0.000000 0.000000 0.000000
					}
				}
			}
		}
	}
	JOINT RightUpLeg
	{
		OFFSET -0.067670 -0.090522 -0.004320
		CHANNELS 3 Zrotation Yrotation Xrotation
		JOINT RightLeg
		{
			OFFSET -0.038290 -0.382569 -0.008850
			CHANNELS 3 Zrotation Yrotation Xrotation
			JOINT RightFoot
			{
				OFFSET 0.015774 -0.398415 -0.042312
				CHANNELS 3 Zrotation Yrotation Xrotation
				JOINT RightToe
				{
					OFFSET -0.025372 -0.048144 0.123348
					CHANNELS 3 Zrotation Yrotation Xrotation
					End Site
					{
						OFFSET 0.000000 0.000000 0.000000
					}
				}
			}
		}
	}
	JOINT Spine
	{
		OFFSET -0.002533 0.108963 -0.026696
		CHANNELS 3 Zrotation Yrotation Xrotation
		JOINT Spine1
		{
			OFFSET 0.005487 0.135180 0.001092
			CHANNELS 3 Zrotation Yrotation Xrotation
			JOINT Spine2
			{
				OFFSET 0.001457 0.052922 0.025425
				CHANNELS 3 Zrotation Yrotation Xrotation
				JOINT Neck
				{
					OFFSET -0.002778 0.213870 -0.042857
					CHANNELS 3 Zrotation Yrotation Xrotation
					JOINT Head
					{
						OFFSET 0.005152 0.064970 0.051349
						CHANNELS 3 Zrotation Yrotation Xrotation
						End Site
						{
							OFFSET 0.000000 0.000000 0.000000
						}
					}
				}
				JOINT LeftShoulder
				{
					OFFSET 0.078845 0.121749 -0.034090
					CHANNELS 3 Zrotation Yrotation Xrotation
					JOINT LeftArm
					{
						OFFSET 0.090977 0.030469 -0.008868
						CHANNELS 3 Zrotation Yrotation Xrotation
						JOINT LeftForeArm
						{
							OFFSET 0.259612 -0.012772 -0.027456
							CHANNELS 3 Zrotation Yrotation Xrotation
							JOINT LeftHand
							{
								OFFSET 0.249234 0.008986 -0.001171
								CHANNELS 3 Zrotation Yrotation Xrotation
								End Site
								{
									OFFSET 0.000000 0.000000 0.000000
								}
							}
						}
					}
				}
				JOINT RightShoulder
				{
					OFFSET -0.081759 0.118833 -0.038615
					CHANNELS 3 Zrotation Yrotation Xrotation
					JOINT RightArm
					{
						OFFSET -0.096012 0.032551 -0.009143
						CHANNELS 3 Zrotation Yrotation Xrotation
						JOINT RightForeArm
						{
							OFFSET -0.253742 -0.013329 -0.021401
							CHANNELS 3 Zrotation Yrotation Xrotation
							JOINT RightHand
							{
								OFFSET -0.255298 0.007772 -0.005559
								CHANNELS 3 Zrotation Yrotation Xrotation
								End Site
								{
									OFFSET 0.000000 0.000000 0.000000
								}
							}
						}
					}
				}
			}
		}
	}
}
MOTION
Frames: 10
Frame Time: 0.050000
0.000000 0.954173 0.000000 -1.215653 -2.411914 3.365241 6.433574 -0.061742 0.858639 -4.252998 0.466557 -9.246070 2.984284 9.764346 14.828663 0.000000 0.000000 0.000000 -2.599996 0.248294 -2.028931 3.417950 -0.379609 -4.503431 -2.398685 -9.959166 12.621052 0.000000 0.000000 0.000000 -1.069792 -0.108481 4.107341 5.174335 -0.787284 -22.331077 -0.484907 -1.265614 29.219159 2.615221 -1.318701 -15.914791 0.000000 0.000000 0.000000 -22.880601 4.540493 -3.132177 -54.639411 -8.414479 -5.477872 -12.573305 -27.090672 4.794404 0.000000 0.000000 0.000000 16.257362 0.043405 -1.400550 57.845327 8.606005 -4.242521 5.610697 36.743136 3.557356 0.000000 0.000000 0.000000 
-0.000095 0.952848 0.000392 -1.477444 -2.633529 4.513317 7.059271 -0.103353 0.467032 -4.441134 0.474175 -10.297500 2.776380 9.323249 14.392631 0.000000 0.000000 0.000000 -2.536772 0.330714 -2.997993 4.021514 -0.410331 -4.339883 -2.796975 -10.722533 12.679704 0.000000 0.000000 0.000000 -0.874144 -0.084396 3.125451 5.620894 -0.926049 -21.936382 -0.161191 -1.300090 28.846806 3.491008 -2.217576 -13.240479 0.000000 0.000000 0.000000 -22.999035 5.875675 -3.948133 -54.253016 -7.418613 -5.846150 -14.806346 -27.224394 5.394957 0.000000 0.000000 0.000000 14.583632 0.228711 -1.175555 58.661204 8.670380 -4.243014 6.374468 41.767327 4.426289 0.000000 0.000000 0.000000 
-0.000164 0.952615 0.000351 -0.751408 -2.107369 4.770522 6.698833 -0.129660 -0.139520 -5.392824 0.500705 -9.024739 2.491117 8.834520 13.872222 0.000000 0.000000 0.000000 -3.019434 0.351020 -3.191731 3.717433 -0.396454 -4.277391 -3.147680 -11.275975 12.577219 0.000000 0.000000 0.000000 -1.173086 -0.055903 2.760813 5.877986 -1.063348 -20.899491 -0.377937 -1.297205 27.996550 3.083566 -2.018811 -11.282026 0.000000 0.000000 0.000000 -22.252883 5.718027 -3.908564 -53.815825 -6.355793 -6.159107 -14.335239 -26.420467 5.045256 0.000000 0.000000 0.000000 15.366035 0.986041 -0.823304 57.599974 11.040502 -2.924870 4.977230 46.630732 4.497967 0.000000 0.000000 0.000000 
-0.000323 0.952749 0.000222 -0.865757 -2.194067 5.076451 7.435832 -0.148234 -0.267765 -6.020954 0.517113 -9.495980 2.623918 9.188344 14.670022 0.000000 0.000000 0.000000 -3.327032 0.393545 -3.693802 4.784553 -0.459238 -4.373391 -3.463902 -12.120198 13.943698 0.000000 0.000000 0.000000 -1.526256 -0.040999 2.904492 7.144106 -1.424992 -20.578229 -0.164967 -0.455562 27.641030 3.873884 -2.645418 -10.042292 0.000000 0.000000 0.000000 -21.871246 6.263153 -4.447749 -53.916163 -5.409021 -6.469887 -15.466275 -26.784662 5.348639 0.000000 0.000000 0.000000 14.330904 1.531276 -0.303367 57.553858 13.395660 -1.746906 3.693937 52.323043 4.781224 0.000000 0.000000 0.000000 
-0.000570 0.953176 -0.000216 -0.381845 -1.722698 5.180896 6.698866 -0.152205 -0.415495 -6.137184 0.513762 -9.310569 2.528109 8.973202 14.071268 0.000000 0.000000 0.000000 -3.842744 0.397656 -3.721619 4.875942 -0.468240 -4.928385 -3.400835 -11.963937 14.029952 0.000000 0.000000 0.000000 -1.149327 -0.072845 3.335392 7.347023 -1.540302 -19.831350 -0.196772 0.194234 27.061052 4.290448 -2.861363 -9.822580 0.000000 0.000000 0.000000 -20.732360 5.857157 -4.339983 -54.339574 -4.835003 -6.651812 -16.790470 -27.311397 5.727065 0.000000 0.000000 0.000000 14.725802 1.917869 0.041471 56.648847 17.258708 0.181483 1.395406 56.946747 4.347724 0.000000 0.000000 0.000000 
-0.000900 0.953804 -0.001105 -0.200048 -1.467027 5.208484 6.704451 -0.158752 -0.453696 -6.622279 0.516568 -9.640631 2.798340 9.521806 14.569949 0.000000 0.000000 0.000000 -4.085405 0.412902 -3.948856 5.366856 -0.501234 -4.670693 -3.744877 -12.573967 14.253063 0.000000 0.000000 0.000000 -1.116143 -0.088402 3.792235 7.624274 -1.644405 -19.478987 0.666172 1.361003 26.800254 5.018991 -3.422256 -8.715897 0.000000 0.000000 0.000000 -20.508902 5.771656 -4.626380 -54.593238 -4.553804 -6.725651 -17.123153 -27.181075 5.678199 0.000000 0.000000 0.000000 13.860959 3.500874 1.123117 56.209898 22.378245 2.695101 -7.207943 58.845221 0.187711 0.000000 0.000000 0.000000 
-0.001370 0.953888 -0.002393 0.226725 -0.588660 5.599056 6.431982 -0.197789 -1.151498 -7.048784 0.509764 -9.549178 2.832369 9.683227 14.615765 0.000000 0.000000 0.000000 -4.313988 0.421984 -4.121499 5.432553 -0.516966 -4.691521 -3.927864 -12.772165 14.178222 0.000000 0.000000 0.000000 -0.834348 -0.120570 4.279521 7.747238 -1.678955 -19.259321 1.079877 2.138116 26.451731 6.022633 -4.119203 -8.477742 0.000000 0.000000 0.000000 -20.150678 5.509498 -4.783099 -54.988183 -4.424533 -6.746629 -17.419933 -27.519074 5.726880 0.000000 0.000000 0.000000 13.345458 4.835172 2.028724 55.751024 27.487295 5.266865 -14.385557 56.002009 -3.231989 0.000000 0.000000 0.000000 
-0.001993 0.953879 -0.003765 0.369006 0.416089 5.688562 6.437014 -0.232514 -1.692397 -7.111449 0.496060 -9.202609 2.690338 9.505077 14.257327 0.000000 0.000000 0.000000 -4.170538 0.413012 -4.089079 5.467725 -0.535358 -4.514848 -4.249770 -13.170061 13.835086 0.000000 0.000000 0.000000 -0.105910 -0.209245 5.279700 7.719464 -1.641785 -19.354499 1.696847 3.343007 26.081851 6.733150 -4.553277 -8.130616 0.000000 0.000000 0.000000 -20.158620 4.787726 -4.866190 -54.943522 -4.419627 -6.652632 -17.995747 -27.386891 5.691043 0.000000 0.000000 0.000000 12.957691 6.627838 3.215619 54.011093 32.424184 7.514304 -19.625326 48.120677 -4.773298 0.000000 0.000000 0.000000 
-0.002749 0.953902 -0.004937 0.717377 1.515656 5.883965 6.070951 -0.265053 -2.238380 -7.189937 0.469189 -9.256953 2.696943 9.691228 14.486113 0.000000 0.000000 0.000000 -4.149469 0.407815 -4.114863 5.408762 -0.545597 -4.700068 -4.694455 -13.869300 14.181167 0.000000 0.000000 0.000000 0.340854 -0.266444 5.783209 7.749216 -1.661918 -19.001482 2.191951 4.267405 25.895496 7.642030 -5.124561 -8.146422 0.000000 0.000000 0.000000 -19.695547 4.588379 -5.098100 -55.813061 -4.659408 -6.582622 -18.066526 -27.258866 5.558067 0.000000 0.000000 0.000000 12.711643 8.231955 4.266310 52.183762 36.696619 9.287654 -21.948406 38.383060 -4.375965 0.000000 0.000000 0.000000 
-0.003763 0.953973 -0.005756 0.861277 2.777591 6.085753 5.942746 -0.303373 -2.806926 -7.247342 0.440455 -9.182492 2.341191 9.332827 14.641700 0.000000 0.000000 0.000000 -4.004173 0.402664 -4.146054 5.232101 -0.550755 -4.723808 -5.564192 -15.266981 14.328337 0.000000 0.000000 0.000000 1.132557 -0.379270 6.658004 7.897203 -1.662656 -19.165687 2.364380 5.355858 25.838806 8.411650 -5.502856 -8.405068 0.000000 0.000000 0.000000 -19.628267 3.990314 -5.255934 -56.205547 -4.851064 -6.472741 -18.122882 -27.037827 5.373897 0.000000 0.000000 0.000000 12.794655 9.510666 5.238700 49.331972 39.643303 9.958057 -22.033730 29.287027 -3.202066 0.000000 0.000000 0.000000 
